<svg xmlns:v="https://vecta.io/nano" xmlns="http://www.w3.org/2000/svg" viewBox="0 0 250 250">
    <path fill="#0038a4" fill-rule="evenodd"
          d="M249.567 124.784c0 35.291-89.489 124.784-124.784 124.784-23.386 0-70.566-39.291-99.741-76.071 32.425-42.288 54.896-63.431 67.416-63.431 18.823 0 29.677 42.986 63.207 42.986 22.353 0 49.159-20.507 80.419-61.522l-.161.212c8.42 12.826 13.643 24.516 13.643 33.041zM124.784 0c22.586 0 67.366 36.649 96.685 72.289-31.342 38.148-53.276 57.222-65.802 57.222-18.824 0-29.678-42.998-63.207-42.998-22.352 0-49.6 22.339-81.743 67.018l.107-.155C4.073 142.308 0 132.312 0 124.784 0 89.492 89.489 0 124.784 0z"/>
</svg>
